<?xml version="1.0" encoding="utf-8"?>
<svg viewBox="0 0 686.385 543.074" fill="#000000" xmlns="http://www.w3.org/2000/svg">
  <defs>
    <clipPath id="clippath0" transform="">
      <path d="M 0 376 L 595.28 376 L 595.28 0 L 0 0 Z" style="fill: none; clip-rule: nonzero;"/>
    </clipPath>
    <clipPath id="clip-1" transform="">
      <path d="M 0 113.386 L 113.386 113.386 L 113.386 0 L 0 0 Z" style="fill: none; clip-rule: nonzero;"/>
    </clipPath>
  </defs>
  <rect x="18.299" y="4.078" width="649.786" height="534.918" style="stroke: rgb(0, 0, 0); fill: rgb(255, 255, 255); stroke-width: 0px;" transform="matrix(1, 0, 0, 1, 0, -3.552713678800501e-15)"/>
  <g transform="matrix(1, 0, 0, 1, 17.332141876220703, 29.56632804870605)">
    <g transform="matrix(1, 0, 0, 1, -60.492638, -52.336327)">
      <g transform="matrix(1, 0, 0, 1, -46.66608, -25.148514)">
        <path d="M 608.506 198.969 C 636.058 201.836 691.352 209.567 697.064 225.814 C 704.705 247.548 679.355 277.705 632.195 308.895 C 585.033 340.084 516.06 372.303 436.454 398.162 C 356.847 424.02 281.68 438.622 224.504 441.325 C 167.329 444.027 128.144 434.832 120.503 413.098 C 113.567 393.371 133.812 366.703 172.877 338.623" style="stroke: rgb(0, 0, 0); fill: none; stroke-width: 11px; transform-origin: 394.137px 272.222px;"/>
        <g transform="matrix(1, 0, 0, 1, 152.783005, 63.455994)">
          <g>
            <path d="M504.755,199.948c0-0.001,0-0.001-0.001-0.002c-5.817-22.133-15.065-43.336-27.491-63.023 c-17.666-27.99-40.935-51.967-69.158-71.266C363.825,35.381,311.228,19.378,256,19.378c-15.448,0-30.959,1.291-46.103,3.837 c-42.923,7.216-83.441,24.689-117.168,50.531c-49.576,37.985-81.659,91.227-90.339,149.919C0.804,234.386,0,245.264,0,256 c0,42.127,12.129,83.49,35.075,119.617c22.189,34.936,53.913,64.224,91.743,84.698c0.003,0.002,0.006,0.004,0.009,0.005 c21.464,11.616,44.583,20.243,68.715,25.645c19.732,4.417,40.074,6.656,60.458,6.656c49.509,0,97.548-13.086,138.924-37.842 c40.419-24.183,72.565-58.22,92.963-98.427C503.888,324.811,512,291.048,512,256C512,237.098,509.562,218.24,504.755,199.948z M412.152,94.092c12.785,10.373,24.232,21.918,34.257,34.545l-20.162-4.63c-6.466-1.485-13.11,0.087-18.227,4.308 c-5.118,4.222-7.922,10.448-7.691,17.08c0.01,0.274-0.127,0.539-0.359,0.689l-14.81,9.673c-0.249,0.162-0.566,0.172-0.824,0.024 L363.474,143.9c-1.856-1.058-2.813-3.249-2.325-5.33l4.694-20.037c0.503-2.146,2.393-3.686,4.596-3.747l17.674-0.492 C399.968,113.964,409.836,105.307,412.152,94.092z M126.715,414.119l-2.982,20.807C59.64,394.883,20.398,327.546,20.398,256 c0-6.33,0.308-12.715,0.919-19.083l13.65,2.206c3.437,0.556,6.949,0.838,10.436,0.838h6.914c9.584,0,19.103,3.144,26.802,8.852 l10.476,7.766c0.896,0.664,1.48,1.682,1.599,2.792l1.42,13.137c0.229,2.125-1.244,4.055-3.355,4.393 c-11.911,1.905-20.745,12.437-20.55,24.497l0.746,46.244c0.085,5.254,1.814,10.239,5.002,14.415l16.623,21.78 c7.843,10.278,18.449,17.937,30.671,22.152C125.135,407.156,127.223,410.575,126.715,414.119z M192.423,464.242 c-17.254-4.427-33.891-10.659-49.622-18.587l4.105-28.639c1.895-13.213-5.889-25.96-18.506-30.311 c-8.41-2.9-15.708-8.172-21.105-15.244l-16.622-21.779c-0.524-0.686-0.808-1.506-0.822-2.369l-0.746-46.243 c-0.032-1.983,1.421-3.714,3.378-4.027c12.844-2.055,21.81-13.795,20.412-26.728l-1.42-13.138 c-0.729-6.75-4.276-12.941-9.731-16.985l-10.476-7.766c-11.19-8.295-25.023-12.864-38.951-12.864h-6.914 c-2.4,0-4.815-0.194-7.181-0.576l-13.932-2.252c9.889-49.492,38.323-94.217,80.844-126.797 c29.971-22.964,65.793-38.765,103.851-45.846c5.773,4.803,10.241,10.963,13.03,18.011l0.578,1.463 c1.448,3.659,2.412,7.497,2.863,11.407l0.514,4.45c0.913,7.915-0.298,15.955-3.5,23.25l-5.546,12.635 c-3.631,8.268-9.588,15.183-17.229,19.993l-6.91,4.351c-7.001,4.407-11.094,12.279-10.682,20.542l0.934,18.667 c0.047,0.953-0.396,1.586-0.776,1.95c-0.38,0.363-1.031,0.774-1.983,0.687c-0.841-0.08-1.582-0.572-1.983-1.316l-8.487-15.761 c-2.938-5.459-8.049-9.545-14.021-11.212l-29.996-8.372c-7.883-2.2-16.329-1.546-23.779,1.84l-7.143,3.247 c-15.028,6.831-23.241,23.464-19.529,39.547c1.469,6.369,4.69,12.18,9.311,16.801l19.489,19.49 c1.099,1.097,2.152,2.268,3.133,3.478l13.361,16.479c5.9,7.277,14.647,11.446,24.013,11.445c0.032,0,0.063,0,0.095,0l36.401-0.111 c0.011,0,0.021,0,0.033,0c3.726,0,7.205,1.997,9.083,5.218c4.37,7.493,11.742,12.834,20.226,14.652l13.639,2.922 c2.999,0.643,5.561,2.555,7.029,5.248l6.587,12.076c2.641,4.842,6.636,8.722,11.553,11.221l30.957,15.731 c2.546,1.294,4.017,4.066,3.664,6.9c-0.205,1.642-1,3.15-2.24,4.246l-11.759,10.402c-3.315,2.932-5.889,6.673-7.444,10.818 l-2.564,6.836c-0.78,2.083-2.406,3.766-4.462,4.618l-12.525,5.193c-10.668,4.423-17.563,14.745-17.563,26.295 c0,1.298-0.319,2.594-0.922,3.745L192.423,464.242z M256,472.223c-14.387,0-28.747-1.203-42.851-3.584l29.352-55.996 c2.129-4.06,3.255-8.631,3.255-13.216c0-3.273,1.954-6.199,4.977-7.453l12.526-5.193c7.254-3.009,12.994-8.95,15.749-16.299 l2.563-6.832c0.389-1.036,1.032-1.971,1.86-2.704l11.759-10.402c4.96-4.388,8.143-10.424,8.965-16.993 c1.419-11.339-4.473-22.437-14.662-27.616l-30.958-15.731c-1.228-0.624-2.227-1.594-2.886-2.804l-6.587-12.076 c-4.316-7.915-11.848-13.536-20.663-15.426l-13.638-2.922c-2.886-0.618-5.394-2.436-6.881-4.984 c-5.523-9.467-15.749-15.338-26.704-15.338c-0.032,0-0.063,0-0.095,0l-36.4,0.111c-0.011,0-0.021,0-0.033,0 c-3.186,0-6.162-1.418-8.169-3.893l-13.362-16.479c-1.426-1.759-2.959-3.461-4.555-5.056l-19.488-19.488 c-1.915-1.914-3.249-4.322-3.858-6.962c-1.538-6.667,1.866-13.561,8.094-16.392l7.143-3.247c3.089-1.403,6.589-1.675,9.857-0.763 l29.996,8.372c0.657,0.184,1.219,0.633,1.543,1.234l8.488,15.762c3.638,6.756,10.37,11.223,18.009,11.951 c6.629,0.633,13.197-1.646,18.013-6.249c4.816-4.603,7.386-11.06,7.054-17.714l-0.934-18.667c-0.045-0.91,0.405-1.776,1.176-2.261 l6.91-4.351c11.105-6.992,19.763-17.039,25.039-29.055l5.546-12.635c4.654-10.602,6.413-22.285,5.086-33.789l-0.514-4.45 c-0.655-5.68-2.055-11.257-4.16-16.575l-0.579-1.464c-1.955-4.938-4.486-9.571-7.515-13.834h0.013 c7.483-0.654,15.01-0.983,22.52-0.983c49.28,0,96.25,13.738,136.193,39.782l0.076,9.449c0.021,2.626-2.098,4.822-4.723,4.896 l-17.673,0.492c-11.454,0.318-21.278,8.332-23.89,19.487l-4.694,20.035c-2.534,10.816,2.438,22.211,12.09,27.708l20.861,11.881 c3.274,1.864,6.887,2.792,10.492,2.792c4.031,0,8.053-1.16,11.581-3.463l14.81-9.673c6.172-4.03,9.846-11.11,9.59-18.475 c-0.004-0.106-0.014-0.391,0.287-0.638c0.304-0.249,0.578-0.183,0.68-0.161l22.874,5.253c0.568,0.131,1.149,0.239,1.733,0.322 l16.17,2.321c7.032,11.706,12.847,23.961,17.384,36.627l-15.799-3.819c-0.63-0.152-1.274-0.283-1.915-0.386l-17.252-2.782 c-18.733-3.021-37.783,3.341-50.941,17.026l-2.596,2.7c-7.696,8.004-12.903,17.992-15.059,28.884l-6.578,33.245 c-2.294,11.589-1.02,23.443,3.683,34.281c8.211,18.921,26.041,32.128,46.531,34.466l3.196,0.365 c8.762,1.002,17.784-0.043,26.085-3.017l10.879-3.897c1.938-0.695,4.115-0.086,5.416,1.52l1.428,1.763 c0.667,0.824,1.05,1.86,1.082,2.917l0.516,17.729C429.455,424.098,346.343,472.223,256,472.223z M482.538,315.632l-1.189-1.47 c-4.887-6.037-12.171-9.364-19.652-9.364c-2.844,0-5.717,0.481-8.497,1.477l-10.879,3.896c-5.377,1.927-11.222,2.603-16.893,1.954 l-3.195-0.365c-13.27-1.515-24.817-10.068-30.134-22.32c-3.047-7.018-3.872-14.695-2.387-22.2l6.578-33.245 c1.396-7.054,4.768-13.522,9.753-18.705l2.596-2.7c8.521-8.861,20.856-12.983,32.99-11.025l17.25,2.782 c0.122,0.02,0.245,0.044,0.368,0.074l27.225,6.579c3.406,14.75,5.129,29.859,5.129,44.999 C491.602,276.427,488.563,296.38,482.538,315.632z"/>
          </g>
        </g>
        <g style="" transform="matrix(1.3922, 0, 0, 1.3922, -104.695374, -171.935654)">
          <g transform="matrix(0.693175, 0, 0, 0.695209, 93.284424, 107.451378)" style="">
            <g>
              <g transform="matrix(0.125801, 0, 0, 0.125801, 259.726044, 405.64679)" style="">
                <circle cx="400" cy="400" r="400" color="#000000" color-rendering="auto" image-rendering="auto" shape-rendering="auto" solid-color="#000000" style="isolation: auto; mix-blend-mode: normal;"/>
              </g>
            </g>
            <g style="" transform="matrix(0.464141, 0, 0, 0.496613, -157.651825, 307.972382)">
              <g transform="matrix(1.729786, 0, 0, 1.729786, 899.746948, 185.681702)">
                <g transform="matrix(0.337449, 0, 0, 0.339152, 11.60638, 424.592896)" fill="#4c4c4c" style="">
                  <path d="m248.04-1062.8zl-95.449-84.53-95.504 84.567v120.84c0 3.1208 2.5218 5.6243 5.6427 5.6243h59.688v-52.982c0-3.1208 2.5035-5.6426 5.6244-5.6426h49.044c3.1208 0 5.6243 2.5218 5.6243 5.6426v52.982h59.706c3.1208 0 5.6244-2.5035 5.6244-5.6243v-120.88zm-190.95 0.0366z" style="fill: rgb(255, 255, 255);"/>
                  <path d="m152.04-1193.6l-135.45 119.94 14.268 16.097 121.74-107.8 121.71 107.8 14.241-16.097-135.42-119.94-0.5264 0.6096-0.5541-0.6096z" style="fill: rgb(255, 255, 255);"/>
                  <path d="m57.086-1176.4h34.338l-0.2992 20.338-34.038 30.75v-51.088z" style="fill: rgb(255, 255, 255);"/>
                </g>
                <rect x="5.375" y="2.5" width="121.5" height="121.5" fill="none" stroke-dasharray="null" stroke-linecap="null" stroke-linejoin="null" stroke-width="59"/>
              </g>
            </g>
          </g>
        </g>
        <g style="" transform="matrix(1.3922, 0, 0, 1.3922, 40.684078, -208.066284)">
          <g transform="matrix(0.693175, 0, 0, 0.695209, 93.284424, 107.451378)" style="">
            <g transform="matrix(1, 0, 0, 1, -4.674236, 3.231149)">
              <g>
                <g transform="matrix(0.125801, 0, 0, 0.125801, 259.726044, 405.64679)" style="">
                  <circle cx="400" cy="400" r="400" color="#000000" color-rendering="auto" image-rendering="auto" shape-rendering="auto" solid-color="#000000" style="isolation: auto; mix-blend-mode: normal;"/>
                </g>
              </g>
              <g style="" transform="matrix(0.464141, 0, 0, 0.496613, -157.651825, 307.972382)">
                <g transform="matrix(1.729786, 0, 0, 1.729786, 899.746948, 185.681702)">
                  <rect x="5.375" y="2.5" width="121.5" height="121.5" fill="none" stroke-dasharray="null" stroke-linecap="null" stroke-linejoin="null" stroke-width="59"/>
                </g>
              </g>
            </g>
            <g style="" transform="matrix(1.442637, 0, 0, 1.438416, 1.237068, -213.044128)">
              <g transform="matrix(0.693175, 0, 0, 0.695209, 93.284424, 107.451378)" style="">
                <g>
                  <g transform="matrix(0.125801, 0, 0, 0.125801, 259.726044, 405.64679)" style="">
                    <circle cx="400" cy="400" r="400" color="#000000" color-rendering="auto" image-rendering="auto" shape-rendering="auto" solid-color="#000000" style="isolation: auto; mix-blend-mode: normal;"/>
                  </g>
                </g>
                <g style="" transform="matrix(0.464141, 0, 0, 0.496613, -157.651825, 307.972382)">
                  <g transform="matrix(1.729786, 0, 0, 1.729786, 899.746948, 185.681702)">
                    <g transform="matrix(0.337449, 0, 0, 0.339152, 11.60638, 424.592896)" fill="#4c4c4c" style=""/>
                    <rect x="5.375" y="2.5" width="121.5" height="121.5" fill="none" stroke-dasharray="null" stroke-linecap="null" stroke-linejoin="null" stroke-width="59"/>
                  </g>
                </g>
              </g>
            </g>
            <g style="" transform="matrix(1.442637, 0, 0, 1.438416, 100.808525, -319.299744)">
              <g transform="matrix(0.693175, 0, 0, 0.695209, 93.284424, 107.451378)" style="">
                <g>
                  <g transform="matrix(0.125801, 0, 0, 0.125801, 259.726044, 405.64679)" style="">
                    <circle cx="400" cy="400" r="400" color="#000000" color-rendering="auto" image-rendering="auto" shape-rendering="auto" solid-color="#000000" style="isolation: auto; mix-blend-mode: normal;"/>
                  </g>
                </g>
                <g style="" transform="matrix(0.464141, 0, 0, 0.496613, -157.651825, 307.972382)">
                  <g transform="matrix(1.729786, 0, 0, 1.729786, 899.746948, 185.681702)">
                    <g transform="matrix(0.337449, 0, 0, 0.339152, 11.60638, 424.592896)" fill="#4c4c4c" style=""/>
                    <rect x="5.375" y="2.5" width="121.5" height="121.5" fill="none" stroke-dasharray="null" stroke-linecap="null" stroke-linejoin="null" stroke-width="59"/>
                  </g>
                </g>
              </g>
            </g>
            <g style="" transform="matrix(1.442637, 0, 0, 1.438416, -438.717499, -95.522392)">
              <g transform="matrix(0.693175, 0, 0, 0.695209, 93.284424, 107.451378)" style="">
                <g>
                  <g transform="matrix(0.125801, 0, 0, 0.125801, 259.726044, 405.64679)" style="">
                    <circle cx="400" cy="400" r="400" color="#000000" color-rendering="auto" image-rendering="auto" shape-rendering="auto" solid-color="#000000" style="isolation: auto; mix-blend-mode: normal;"/>
                  </g>
                </g>
                <g style="" transform="matrix(0.464141, 0, 0, 0.496613, -157.651825, 307.972382)">
                  <g transform="matrix(1.729786, 0, 0, 1.729786, 899.746948, 185.681702)">
                    <rect x="5.375" y="2.5" width="121.5" height="121.5" fill="none" stroke-dasharray="null" stroke-linecap="null" stroke-linejoin="null" stroke-width="59"/>
                  </g>
                </g>
              </g>
            </g>
          </g>
        </g>
        <g transform="matrix(0.145999, 0, 0, 0.145999, 132.761124, 411.628143)" style="">
          <g class="page-1" transform="matrix(1, 0, 0, -1, 0, 376)">
            <g transform="">
              <path d="M 0 376 L 595.28 376 L 595.28 0 L 0 0 Z" style="fill: none;"/>
            </g>
            <g style="clip-path: url('#clippath0');">
              <g transform="translate(163.0479 50.0566)">
                <path d="M 0 0 C -20.467 0 -37.06 16.593 -37.06 37.061 C -37.06 57.527 -20.467 74.12 0 74.12 C 20.468 74.12 37.06 57.527 37.06 37.061 C 37.06 16.593 20.468 0 0 0 M 0 115.474 C -43.306 115.474 -78.413 80.366 -78.413 37.061 C -78.413 -6.246 -43.306 -41.353 0 -41.353 C 43.307 -41.353 78.414 -6.246 78.414 37.061 C 78.414 80.366 43.307 115.474 0 115.474" style="fill-opacity: 1; fill: rgb(255, 255, 255);"/>
              </g>
            </g>
            <g style="clip-path: url('#clippath0');">
              <g transform="translate(466.2471 230.7285)">
                <path d="M 0 0 L -74.084 0 C -83.813 0 -83.813 14.338 -83.813 14.338 L -83.813 74.205 C -83.813 92.165 -74.084 89.919 -74.084 89.919 C -74.084 89.919 -69.594 95.158 -38.164 83.933 C -6.734 72.708 14.219 35.292 16.464 16.583 C 18.709 -2.125 0 0 0 0 M -123.474 21.073 C -124.97 -2.873 -138.44 0.12 -138.44 0.12 L -269.397 0.12 C -269.397 0.12 -298.435 3.229 -271.642 36.788 C -224.786 95.478 -194.564 95.478 -154.154 94.409 C -153.896 94.402 -153.638 94.395 -153.382 94.386 C -136.515 93.813 -123.207 79.844 -122.935 62.969 C -122.727 50.003 -122.695 33.517 -123.474 21.073 M 82.316 -35.954 C 82.316 -35.954 85.31 -26.974 72.588 9.694 C 59.866 46.362 17.212 89.017 17.212 89.017 C 17.212 89.017 -23.946 126.433 -130.208 130.175 C -236.471 133.916 -296.337 68.812 -327.767 27.654 C -359.196 -13.504 -366.68 3.708 -404.844 -14.252 C -443.009 -32.213 -448.247 -67.384 -448.247 -107.045 C -448.247 -146.706 -411.579 -159.428 -411.579 -159.428 L -395.555 -159.428 C -396.432 -154.275 -396.989 -149.014 -396.989 -143.611 C -396.989 -91.813 -354.998 -49.821 -303.199 -49.821 C -251.4 -49.821 -209.409 -91.813 -209.409 -143.611 C -209.409 -149.014 -209.967 -154.275 -210.843 -159.428 L -138.44 -159.428 L -101.462 -159.428 C -102.339 -154.275 -102.897 -149.014 -102.897 -143.611 C -102.897 -91.813 -60.905 -49.821 -9.106 -49.821 C 42.692 -49.821 84.684 -91.813 84.684 -143.611 C 84.684 -148.53 84.191 -153.322 83.462 -158.037 C 89.862 -153.062 110.753 -133.975 110.753 -96.568 C 110.753 -52.417 82.316 -35.954 82.316 -35.954" style="fill-opacity: 1; fill: rgb(255, 255, 255);"/>
              </g>
            </g>
            <g style="clip-path: url('#clippath0');">
              <g transform="translate(457.1406 50.0576)">
                <path d="M 0 0 C -20.468 0 -37.061 16.592 -37.061 37.06 C -37.061 57.527 -20.468 74.119 0 74.119 C 20.468 74.119 37.06 57.527 37.06 37.06 C 37.06 16.592 20.468 0 0 0 M 0 115.473 C -43.307 115.473 -78.413 80.365 -78.413 37.06 C -78.413 -6.247 -43.307 -41.354 0 -41.354 C 43.306 -41.354 78.413 -6.247 78.413 37.06 C 78.413 80.365 43.306 115.473 0 115.473" style="fill-opacity: 1; fill: rgb(251, 251, 251);"/>
              </g>
            </g>
          </g>
        </g>
        <g transform="matrix(1.485402, 0, 0, 1.485402, 1325.783691, 246.868652)">
          <path d="M -560.129 111.612 C -561.007 111.612 -561.862 111.409 -562.62 111.067 C -563.395 110.702 -564.272 110.493 -565.188 110.493 C -566.099 110.493 -566.976 110.702 -567.75 111.067 C -568.517 111.409 -569.363 111.612 -570.251 111.612 C -571.128 111.612 -571.986 111.409 -572.741 111.067 C -573.518 110.702 -574.396 110.493 -575.312 110.493 C -576.219 110.493 -577.096 110.702 -577.874 111.067 C -578.639 111.409 -579.487 111.612 -580.374 111.612 C -581.262 111.612 -582.106 111.409 -582.865 111.067 C -583.643 110.702 -584.52 110.493 -585.433 110.493 C -586.35 110.493 -587.227 110.702 -588.001 111.067 C -588.759 111.409 -589.611 111.612 -590.499 111.612 C -591.379 111.612 -592.231 111.409 -592.992 111.067 C -593.77 110.702 -594.648 110.493 -595.56 110.493 C -596.47 110.493 -597.347 110.702 -598.125 111.067 C -598.887 111.409 -599.732 111.612 -600.619 111.612 L -600.619 107.87 C -599.732 107.87 -598.887 107.67 -598.125 107.325 C -597.347 106.973 -596.47 106.764 -595.56 106.764 C -594.648 106.764 -593.77 106.974 -592.992 107.325 C -592.231 107.67 -591.379 107.87 -590.499 107.87 C -589.611 107.87 -588.759 107.67 -588.001 107.325 C -587.227 106.973 -586.35 106.764 -585.433 106.764 C -584.52 106.764 -583.643 106.974 -582.865 107.325 C -582.106 107.67 -581.261 107.87 -580.374 107.87 C -579.487 107.87 -578.639 107.67 -577.874 107.325 C -577.096 106.973 -576.219 106.764 -575.312 106.764 C -574.396 106.764 -573.518 106.974 -572.741 107.325 C -571.986 107.67 -571.128 107.87 -570.251 107.87 C -569.364 107.87 -568.518 107.67 -567.75 107.325 C -566.976 106.973 -566.099 106.764 -565.188 106.764 C -564.272 106.764 -563.395 106.974 -562.62 107.325 C -561.862 107.67 -561.007 107.87 -560.129 107.87 L -560.129 111.612 Z" style="fill: rgb(250, 250, 250);"/>
          <path d="M -576.38 67.836 L -576.38 95.985 L -599.435 95.985 L -576.38 67.836 Z" style="fill: rgb(250, 250, 250);"/>
          <path d="M -574.193 74.327 C -567.409 77.483 -559.352 85.892 -560.41 95.984 L -574.193 95.984 L -574.193 74.327 Z" style="fill: rgb(250, 250, 250);"/>
          <path d="M -563.323 98.02 L -569.615 98.02 L -593.992 98.02 L -593.992 103.585 C -593.646 103.676 -593.305 103.776 -592.992 103.927 C -592.23 104.259 -591.379 104.463 -590.498 104.463 C -589.611 104.463 -588.759 104.259 -588 103.927 C -587.226 103.566 -586.349 103.353 -585.433 103.353 C -584.519 103.353 -583.642 103.566 -582.864 103.927 C -582.106 104.259 -581.261 104.463 -580.374 104.463 C -579.487 104.463 -578.639 104.259 -577.874 103.927 C -577.096 103.566 -576.219 103.353 -575.312 103.353 C -574.396 103.353 -573.518 103.566 -572.741 103.927 C -571.986 104.259 -571.127 104.463 -570.25 104.463 C -570.079 104.463 -569.917 104.42 -569.756 104.402 C -569.738 104.402 -569.738 104.422 -569.718 104.422 C -569.605 104.422 -569.524 104.373 -569.414 104.373 C -569.211 104.344 -569.011 104.321 -568.808 104.273 C -566.995 103.899 -565.824 102.486 -565.824 102.486 L -562.297 98.021 L -563.323 98.021 L -563.323 98.02 Z" style="fill: rgb(250, 250, 250);"/>
        </g>
        <g transform="matrix(1.485402, 0, 0, 1.485402, 977.101501, 48.398418)">
          <path d="M -182.058 112.003 L -209.162 99.118 L -209.162 96.554 L -181.159 109.977 L -182.058 112.003 Z" style="fill: rgb(255, 255, 255);"/>
          <path d="M -191.317 126.156 L -179.454 126.156 L -179.454 136.743 C -179.454 138.476 -178.059 139.87 -176.327 139.87 C -174.596 139.87 -173.185 138.476 -173.185 136.743 L -173.185 126.156 C -172.251 126.156 -172.16 125.541 -172.16 124.819 L -172.16 116.926 L -182.071 112.077 L -203.136 112.077 L -205.856 110.538 C -206.726 110.039 -207.834 110.346 -208.33 111.219 C -208.823 112.089 -208.522 113.193 -207.649 113.693 L -203.353 116.154 L -203.353 136.743 C -203.353 138.476 -201.951 139.87 -200.219 139.87 C -198.487 139.87 -197.085 138.476 -197.085 136.743 L -197.093 128.679 L -191.412 138.27 C -190.53 139.755 -188.61 140.243 -187.108 139.357 C -185.636 138.475 -185.148 136.539 -186.034 135.049 L -191.317 126.156 Z" style="fill: rgb(255, 255, 255);"/>
          <path d="M -181.095 109.923 L -172.172 114.169 L -172.172 112.5 L -164.907 112.486 L -162.24 106.756 L -181.095 97.772 L -181.095 109.923 Z" style="fill: rgb(255, 255, 255);"/>
        </g>
      </g>
    </g>
    <g>
      <g transform="matrix(1.391755, 0, 0, 1.391755, 999.763977, 309.201691)">
        <g transform="matrix(1.190195, 0, 0, -1.190195, -400.212402, -14.942245)" style="clip-path: url('#clip-1');">
          <path d="M 32.528 14.993 C 32.528 14.993 31.52 17.034 32.125 17.617 C 32.125 17.617 33.334 15.965 35.451 16.839 C 35.451 16.839 33.838 14.993 32.528 14.993 M 30.046 14.748 C 28.981 14.748 27.669 16.305 27.669 16.305 C 29.39 15.567 30.374 16.961 30.374 16.961 C 30.866 16.469 30.046 14.748 30.046 14.748 M 46.225 30.99 C 46.343 31.542 46.407 32.115 46.407 32.702 C 46.407 37.23 42.737 40.901 38.209 40.901 C 38.172 40.901 38.136 40.895 38.099 40.895 C 36.834 43.792 33.948 45.82 30.584 45.82 C 27.443 45.82 24.718 44.052 23.341 41.458 C 18.843 41.423 15.207 37.769 15.207 33.263 C 15.207 32.347 15.364 31.47 15.641 30.647 C 13.311 29.202 11.754 26.628 11.754 23.684 C 11.754 19.156 15.424 15.485 19.952 15.485 C 21.499 15.485 22.941 15.922 24.175 16.666 C 25.202 15.288 26.648 14.241 28.326 13.72 C 28.41 6.475 24.204 3.023 23.898 2.768 C 23.589 2.51 23.156 1.784 23.156 1.784 L 26.272 4.49 C 26.272 4.49 26.617 4.659 26.354 4.325 C 25.854 3.691 25.862 1.036 25.862 1.036 C 27.762 4.665 29.552 4.817 29.552 4.817 C 29.918 2.598 28.663 1.866 28.663 1.866 C 28.663 1.866 27.707 1.448 28.745 1.62 C 30.149 1.852 31.683 4.981 31.683 4.981 C 30.7 3.027 32.431 1.61 32.431 1.61 C 31.939 4.58 34.392 5.398 34.392 5.398 C 34.556 3.594 38.324 2.931 38.324 2.931 C 33.715 5.04 34.688 13.62 34.79 14.425 C 35.924 15.069 36.886 15.977 37.601 17.063 C 38.888 16.224 40.421 15.732 42.072 15.732 C 46.6 15.732 50.27 19.402 50.27 23.93 C 50.27 26.94 48.643 29.564 46.225 30.99" style="fill-opacity: 1; fill: rgb(255, 255, 255);"/>
        </g>
      </g>
    </g>
  </g>
</svg>