<?xml version="1.0" encoding="utf-8"?>
<svg viewBox="0 0 225.428 245.726" xmlns="http://www.w3.org/2000/svg">
  <g id="Capa_1-2" data-name="Capa 1" transform="matrix(1, 0, 0, 1, -28.39202308654785, 47.68705368041992)">
    <g transform="matrix(1, 0, 0, 1, -174.145294, -41.666668)">
      <g transform="matrix(1, 0, 0, 1, -16.023691, 2.672612)">
        <path class="cls-4" d="M388.12,114.17l27.79-25.41c4.95-4.52,4.95-12.31.01-16.84-15.36-14.09-55.27-50.54-74.28-67.9-5.87-5.36-14.86-5.36-20.73,0-19.01,17.36-58.93,53.81-74.28,67.9-4.94,4.53-4.93,12.32.01,16.84l27.79,25.41-27.79,25.41c-4.95,4.52-4.95,12.31-.01,16.84,15.36,14.09,55.27,50.54,74.28,67.9,5.87,5.36,14.86,5.36,20.73,0,19.01-17.36,58.93-53.81,74.28-67.9,4.94-4.53,4.93-12.32-.01-16.84l-27.79-25.41ZM400.36,150.21c-9.15,8.35-41.71,38.09-58.72,53.64-5.87,5.37-14.86,5.37-20.73,0-17.01-15.55-49.58-45.29-58.72-53.64-1.32-1.2-1.32-3.27,0-4.47,4.84-4.45,13.69-12.52,23.4-21.38l27.12,24.8v-20.46c-4.85-4.42-10.35-9.43-15.94-14.53,5.6-5.1,11.09-10.11,15.94-14.53v-20.46s-27.12,24.8-27.12,24.8c-9.72-8.86-18.56-16.93-23.4-21.38-1.31-1.2-1.31-3.27,0-4.47,9.15-8.35,41.71-38.09,58.72-53.64,5.87-5.37,14.86-5.37,20.73,0,17.01,15.55,49.58,45.29,58.72,53.64,1.32,1.2,1.32,3.27,0,4.47-4.84,4.45-13.69,12.52-23.4,21.38l-27.12-24.8v20.46c4.85,4.42,10.35,9.43,15.94,14.53-5.6,5.1-11.09,10.11-15.94,14.53v20.46s27.12-24.8,27.12-24.8c9.72,8.86,18.56,16.93,23.4,21.38,1.31,1.2,1.31,3.27,0,4.47Z" style="stroke-width: 0px;"/>
        <path class="cls-4" d="M320.95,160.42c5.38,5.25,15.25,5.27,20.65,0v-91.65c-.82-.86-4.57-4.65-10.32-4.65-.05,0-.09,0-.14,0-5.66.06-9.33,3.75-10.18,4.65v91.65Z" style="stroke-width: 0px;"/>
      </g>
      <text class="cls-3" transform="translate(0 319.69)" style="white-space: pre; font-family: Helvetica-Bold, Helvetica; font-size: 63.43px; font-weight: 700; line-height: 101.488px; perspective-origin: 323.312px 0px;"> </text>
    </g>
  </g>
</svg>