<?xml version="1.0" standalone="no"?>
<!DOCTYPE svg PUBLIC "-//W3C//DTD SVG 20010904//EN"
 "http://www.w3.org/TR/2001/REC-SVG-20010904/DTD/svg10.dtd">
<svg version="1.0" xmlns="http://www.w3.org/2000/svg"
 width="783.000000pt" height="783.000000pt" viewBox="0 0 783.000000 783.000000"
 preserveAspectRatio="xMidYMid meet">
<metadata>
Created by potrace 1.14, written by Peter Selinger 2001-2017
</metadata>
<g transform="translate(0.000000,783.000000) scale(0.100000,-0.100000)"
fill="#000000" stroke="none">
<path d="M3748 7825 c-1 -1 -41 -6 -88 -9 -121 -10 -168 -15 -230 -26 -30 -5
-75 -12 -100 -15 -35 -5 -140 -28 -275 -59 -124 -29 -382 -117 -525 -179 -236
-102 -402 -270 -493 -498 -49 -125 -61 -186 -61 -329 0 -146 4 -181 36 -280
25 -78 61 -154 120 -250 24 -39 48 -79 53 -88 19 -33 128 -187 179 -252 165
-212 356 -411 571 -595 39 -33 72 -62 75 -65 9 -9 133 -106 190 -148 30 -23
60 -45 65 -49 6 -5 44 -31 85 -58 41 -28 79 -53 85 -58 51 -38 261 -164 390
-233 337 -182 666 -319 1028 -428 122 -37 343 -95 387 -101 14 -2 57 -11 95
-19 75 -16 107 -22 170 -31 22 -3 65 -10 95 -15 30 -5 84 -12 120 -16 36 -3
76 -7 90 -10 135 -22 627 -21 805 1 17 2 53 6 80 9 28 3 59 8 70 10 11 2 40 7
65 11 83 14 95 16 160 31 36 9 72 17 80 19 39 8 151 56 199 84 290 172 458
469 454 804 -2 129 -37 271 -106 428 -13 30 -32 74 -43 99 -23 53 -123 251
-152 300 -11 19 -30 53 -42 75 -40 72 -188 288 -272 396 -121 155 -177 219
-328 370 -512 514 -1158 882 -1860 1059 -85 21 -171 41 -190 44 -19 3 -46 8
-60 11 -80 17 -210 36 -350 51 -59 6 -566 15 -572 9z"/>
<path d="M1159 6116 c-2 -2 -23 -7 -46 -11 -209 -31 -448 -186 -577 -375 -143
-208 -338 -786 -391 -1155 -3 -23 -7 -51 -10 -65 -2 -13 -7 -48 -10 -78 -3
-30 -7 -57 -9 -61 -19 -30 -28 -653 -13 -811 34 -337 87 -602 179 -889 70
-221 171 -448 236 -531 48 -61 151 -159 211 -199 164 -112 333 -161 531 -157
128 3 144 6 240 33 183 51 395 206 635 464 144 154 301 384 407 594 65 128
165 396 184 494 3 12 12 53 20 90 18 73 18 75 34 181 18 119 24 215 23 355 0
124 -9 273 -18 305 -2 8 -6 33 -10 55 -43 298 -161 621 -329 898 -22 37 -45
76 -51 85 -17 30 -151 204 -197 256 -56 64 -202 209 -251 250 -22 17 -51 41
-65 54 -93 80 -249 162 -378 198 -54 15 -334 31 -345 20z"/>
<path d="M5797 3804 c-1 -1 -58 -5 -127 -8 -69 -4 -138 -9 -155 -11 -16 -2
-55 -6 -86 -9 -31 -3 -74 -8 -95 -11 -22 -3 -52 -8 -69 -10 -81 -12 -276 -48
-325 -60 -30 -8 -70 -17 -89 -20 -19 -3 -37 -8 -41 -10 -3 -2 -18 -6 -31 -8
-14 -3 -58 -15 -99 -27 -597 -173 -1128 -433 -1598 -783 -54 -39 -99 -74 -102
-77 -3 -3 -43 -37 -90 -75 -151 -126 -352 -320 -464 -449 -28 -33 -67 -78 -87
-100 -114 -130 -327 -443 -403 -591 -45 -88 -81 -204 -92 -295 -41 -336 116
-679 396 -865 101 -67 274 -143 479 -211 114 -38 343 -99 402 -108 20 -3 42
-8 50 -10 16 -6 211 -35 274 -42 151 -15 237 -19 440 -18 228 0 382 9 505 29
14 2 45 7 70 10 83 11 150 23 205 35 22 5 54 11 70 14 177 32 549 149 765 240
226 96 465 220 613 318 32 21 61 38 63 38 18 0 291 202 424 313 102 85 376
357 450 446 25 29 50 59 55 65 21 22 161 212 200 271 162 242 335 587 380 762
106 406 -92 845 -464 1033 -64 32 -198 80 -268 95 -10 2 -67 15 -128 29 -60
14 -130 29 -155 32 -25 3 -47 8 -50 9 -3 2 -26 6 -50 9 -25 4 -56 9 -70 11
-104 18 -368 36 -573 38 -71 1 -129 1 -130 1z"/>
</g>
</svg>
